# xmcd
#
# Track frame offsets:
#	150
#	12341
#	34218
#	52908
#	68172
#	82801
#	103114
#	120198
#	136249
#	152471
#	166834
#	186409
#	202912
#	215581
#	230138
#	253764
#
# Disc length: 3687 seconds
#
# Revision: 3
# Processed by: cddbd v1.5.2PL0 Copyright (c) Steve Scherf et al.
# Submitted via: audiograbber 1.83.01
#
DISCID=d00e6510
DTITLE=All Star Karaoke - ASK-76 Country Hits Of The Year Volume 1 Disc 1
DYEAR=2007
DGENRE=Karaoke - Country
TTITLE0=Blake Shelton - Nobody But Me
TTITLE1=Brooks and Dunn - Believe
TTITLE2=Brooks and Dunn, Sheryl Crow, Vince Gill - Building Bridges
TTITLE3=Carrie Underwood - Before He Cheats
TTITLE4=Danielle Peck - Findin' A Good Man
TTITLE5=Dierks Bentley - Come A Little Closer
TTITLE6=Dierks Bentley - Settle For A Slow Down
TTITLE7=Gary Allan - Life Ain't Always Beautiful
TTITLE8=George Strait - Give It Away
TTITLE9=George Strait - She Let Herself Go
TTITLE10=George Strait - Seashores Of Old Mexico, The
TTITLE11=Heartland - I Loved Her First
TTITLE12=Jack Ingram - Love You
TTITLE13=Jason Aldean - Why
TTITLE14=Joe Nichols - Size Matters (Someday)
TTITLE15=Data Track - Data Track
EXTD=karaoke
EXTT0=
EXTT1=
EXTT2=
EXTT3=
EXTT4=
EXTT5=
EXTT6=
EXTT7=
EXTT8=
EXTT9=
EXTT10=
EXTT11=
EXTT12=
EXTT13=
EXTT14=
EXTT15=
PLAYORDER=
